<?xml version="1.0" encoding="utf-8"?>
<!-- Generator: Adobe Illustrator 21.0.0, SVG Export Plug-In . SVG Version: 6.00 Build 0)  -->
<svg version="1.1" id="Layer_1" xmlns="http://www.w3.org/2000/svg" xmlns:xlink="http://www.w3.org/1999/xlink" x="0px" y="0px"
	 viewBox="0 0 150 150" style="enable-background:new 0 0 150 150;" xml:space="preserve">
<style type="text/css">
	.st0{clip-path:url(#SVGID_1_);fill:url(#SVGID_2_);}
</style>
<g>
	<defs>
		<path id="SVGID_4_" d="M78.4,63.1l26.3-15.3l4.2-2.4c6.9,7.9,11.1,18.2,11.1,29.5c0,24.8-20.1,44.9-44.9,44.9
			c-7.1,0-13.9-1.7-19.9-4.7l-25,18.3V74.8c0-11.3,4.2-21.6,11.1-29.5l4.2,2.4l26.3,15.3l3.3,1.9L78.4,63.1z M43.9,42.6l-10.9-6.4
			l42.2-24.6l42.2,24.6l-10.9,6.4l-5.2,3.1l-26,15.1L43.9,42.6z M1.3,74.8c0,23.8,11.3,45,28.9,58.5c12.4,9.6,28,15.3,44.9,15.3
			c40.7,0,73.8-33.1,73.8-73.8C148.9,34.1,115.8,1,75.1,1C34.4,1,1.3,34.1,1.3,74.8"/>
	</defs>
	<clipPath id="SVGID_1_">
		<use xlink:href="#SVGID_4_"  style="overflow:visible;"/>
	</clipPath>
	
		<linearGradient id="SVGID_2_" gradientUnits="userSpaceOnUse" x1="-448.4055" y1="649.3731" x2="-447.4055" y2="649.3731" gradientTransform="matrix(0 -127.851 -127.851 0 83098.1094 -57179.7031)">
		<stop  offset="0" style="stop-color:#27C2FF"/>
		<stop  offset="1" style="stop-color:#C4C1F8"/>
	</linearGradient>
	<rect x="1.3" y="1" class="st0" width="147.6" height="147.6"/>
</g>
</svg>
