<?xml version="1.0" encoding="utf-8"?>
<!-- Generator: Adobe Illustrator 21.0.0, SVG Export Plug-In . SVG Version: 6.00 Build 0)  -->
<svg version="1.1" id="Layer_1" xmlns="http://www.w3.org/2000/svg" xmlns:xlink="http://www.w3.org/1999/xlink" x="0px" y="0px"
	 viewBox="0 0 275.5 49.7" style="enable-background:new 0 0 275.5 49.7;" xml:space="preserve">
<style type="text/css">
	.st0{fill:#19609B;}
	.st1{clip-path:url(#SVGID_1_);fill:url(#SVGID_2_);}
</style>
<path class="st0" d="M23.7,0.2c-5.3,0-8.8,2.1-11,5.1c-1.3-3-3.8-5-7.4-5C3.2,0.3,1,0.9,0.5,1.1L0.3,8.4c1.6,0,2.9,0.1,3.9,0.4v39.4
	h9.5V35.4c1.9,0.5,3.9,0.8,6.4,0.8c12,0,19-6.3,19-18.8C39.1,6.4,32.8,0.2,23.7,0.2 M19.6,28.3c-2.3,0-4.2-0.4-5.9-1.1V15.6
	c0-4.7,3.5-7.5,7.7-7.5c4.5,0,8,2.7,8,9.8C29.5,25.5,25.6,28.3,19.6,28.3"/>
<path class="st0" d="M64.8,0.8c-0.5-0.2-1.6-0.6-3.5-0.6C57.8,0.2,55,2.4,53,6c-1.4-3.6-3.9-5.7-7.4-5.7c-2.6,0-4.2,0.6-4.9,0.8
	l-0.1,7.3c1.6,0,2.9,0.1,3.9,0.4v26.5H54V19.1c0-6.5,3.4-9.8,7.1-9.8c1.6,0,2.7,0.3,3.2,0.5L64.8,0.8z"/>
<path class="st0" d="M82.2,0.2C71.3,0.2,64,6.7,64,18.3c0,11.5,7.3,17.9,18.1,17.9c10.8,0,18.1-6.5,18.1-17.9S93,0.2,82.2,0.2
	 M82.2,28.3c-5.5,0-8.5-3.7-8.5-10s2.9-10.1,8.5-10.1c5.5,0,8.5,3.9,8.5,10.1S87.7,28.3,82.2,28.3"/>
<path class="st0" d="M136.4,0.5c-2.5,0-4.8,0.9-6.3,2.8c-2.4-1.6-5.9-3.1-10.4-3.1c-10.3,0-16.9,6.9-16.9,17.2
	c0,10.3,5.7,16.4,15.2,16.4c4.8,0,8.1-1.4,10.3-3.4v2.4c0,6-3.2,8-9.8,8c-4.8,0-9.4-1.5-11.4-2.4l-0.4,8.4c2.7,1.4,7.2,2.2,12.6,2.2
	c11.5,0,18.4-4.7,18.4-17.6V8.8c1-0.3,2.8-0.4,3.9-0.4l-0.1-7.3C140.8,0.9,139,0.5,136.4,0.5 M128.3,18.2c0,4.7-3.2,7.5-8.5,7.5
	c-4.7,0-7.7-2.9-7.7-8.4c0-5.7,3-9.2,8.7-9.2c3.4,0,5.7,1.1,7.5,2.4V18.2z"/>
<path class="st0" d="M176.6,0.5c-2.5,0-4.8,0.9-6.3,2.8c-2.4-1.6-5.9-3.1-10.4-3.1c-10.3,0-16.9,6.9-16.9,17.2
	c0,10.3,5.7,16.4,15.2,16.4c4.8,0,8.1-1.4,10.3-3.4v2.4c0,6-3.2,8-9.8,8c-4.8,0-9.4-1.5-11.4-2.4l-0.4,8.4c2.7,1.4,7.2,2.2,12.6,2.2
	c11.5,0,18.4-4.7,18.4-17.6V8.8c1-0.3,2.8-0.4,3.9-0.4l-0.1-7.3C181,0.9,179.2,0.5,176.6,0.5 M168.5,18.2c0,4.7-3.2,7.5-8.5,7.5
	c-4.7,0-7.7-2.9-7.7-8.4c0-5.7,3-9.2,8.7-9.2c3.4,0,5.7,1.1,7.5,2.4V18.2z"/>
<path class="st0" d="M210.1,16.7c0,5.8-3.1,9.3-8.2,9.3c-3.9,0-5.8-1.9-5.8-7.5V8c0-6.2-3.2-7.5-7.8-7.5c-2.6,0-4.5,0.4-5.4,0.6
	l-0.1,7.3c1.1,0,2.9,0.1,3.9,0.4V20c0,11.3,4.6,14.4,12.1,14.4c4.9,0,8.6-1.5,11.3-4.5v2.3c0,6.3-3.1,8.6-9.4,8.6
	c-5.7,0-9.9-1.6-11.8-2.4l-0.4,8.3c2.7,1.3,7,2.2,12.4,2.2c11.9,0,18.6-4.8,18.6-17.9V0.9h-9.5V16.7z"/>
<path class="st0" d="M258.4,27.8V0.9h-8L250,2.7c-2.2-1.4-5.3-2.5-9.5-2.5c-10.1,0-17.1,6.9-17.1,18.4c0,11.5,6.2,17.6,15.3,17.6
	c5.5,0,9.1-2,11.4-4.9c1.3,3,3.7,4.7,7.7,4.7c2.4,0,3.9-0.3,4.8-0.5l0.1-7.2C260.7,28.3,259.6,28.1,258.4,27.8 M248.9,20.7
	c0,4.8-3.3,7.6-8.2,7.6c-4.8,0-8-3-8-9.7c0-6.7,3.3-10.4,8.7-10.4c3.4,0,5.8,1.3,7.5,2.7V20.7z"/>
<g>
	<defs>
		<path id="SVGID_4_" d="M267.6,31.9c0,2.2,1.8,4,4,4c2.2,0,4-1.8,4-4c0-2.2-1.8-4-4-4C269.4,28,267.6,29.7,267.6,31.9"/>
	</defs>
	<clipPath id="SVGID_1_">
		<use xlink:href="#SVGID_4_"  style="overflow:visible;"/>
	</clipPath>
	
		<linearGradient id="SVGID_2_" gradientUnits="userSpaceOnUse" x1="-448.3782" y1="670.1025" x2="-447.8695" y2="670.1025" gradientTransform="matrix(6.8959 -12.1172 -12.1172 -6.8959 11481.5664 -777.1407)">
		<stop  offset="0" style="stop-color:#27C2FF"/>
		<stop  offset="1" style="stop-color:#C4C1F8"/>
	</linearGradient>
	<polygon class="st1" points="264.2,33.9 269.5,24.6 278.9,29.9 273.6,39.3 	"/>
</g>
</svg>
