<?xml version="1.0" encoding="utf-8"?>
<!-- Generator: Adobe Illustrator 21.0.0, SVG Export Plug-In . SVG Version: 6.00 Build 0)  -->
<svg version="1.1" id="Layer_1" xmlns="http://www.w3.org/2000/svg" xmlns:xlink="http://www.w3.org/1999/xlink" x="0px" y="0px"
	 viewBox="0 0 987.3 206.3" style="enable-background:new 0 0 987.3 206.3;" xml:space="preserve">
<style type="text/css">
	.st0{fill:#19609B;}
	.st1{fill:url(#SVGID_1_);}
	.st2{fill:url(#SVGID_2_);}
</style>
<g>
	<g>
		<path class="st0" d="M304.3,41.1c-14.4,0-23.9,5.6-29.7,13.8c-3.5-8.1-10.3-13.6-20-13.6c-5.8,0-11.6,1.6-13.2,2.1L241,63.3
			c4.3,0,8,0.4,10.5,1.2v106.8h25.8v-34.8c5,1.4,10.7,2.1,17.3,2.1c32.4,0,51.4-17.1,51.4-50.9C346.1,57.8,329,41.1,304.3,41.1z
			 M293.3,117c-6.2,0-11.5-1.2-15.9-2.9V82.9c0-12.8,9.5-20.2,21-20.2c12.2,0,21.7,7.4,21.7,26.4C320,109.7,309.6,117,293.3,117z"/>
		<path class="st0" d="M415.5,42.7c-1.4-0.6-4.5-1.6-9.5-1.6c-9.5,0-17.1,6-22.3,15.7c-3.7-9.7-10.7-15.5-20-15.5
			c-7,0-11.5,1.6-13.4,2.1l-0.4,19.8c4.5,0,8,0.4,10.5,1.2v71.8h25.8V92.2c0-17.7,9.3-26.6,19.2-26.6c4.5,0,7.2,0.8,8.7,1.4
			L415.5,42.7z"/>
		<path class="st0" d="M462.5,41.1c-29.3,0-49.1,17.5-49.1,48.9c0,31.1,19.8,48.5,49.1,48.5s49.1-17.5,49.1-48.5
			S491.8,41.1,462.5,41.1z M462.5,117c-15,0-22.9-10.1-22.9-27s8-27.4,22.9-27.4c15,0,22.9,10.5,22.9,27.4S477.5,117,462.5,117z"/>
		<path class="st0" d="M609.5,41.9c-6.8,0-13,2.5-17.1,7.6c-6.6-4.5-15.9-8.4-28.2-8.4c-28,0-45.8,18.6-45.8,46.6S534,132,559.6,132
			c13,0,21.9-3.7,28-9.3v6.6c0,16.3-8.7,21.7-26.4,21.7c-13,0-25.4-4.1-30.9-6.6l-1,22.7c7.2,3.7,19.4,6,34.2,6
			c31.3,0,49.9-12.8,49.9-47.6V64.4c2.7-0.8,7.6-1.2,10.7-1.2l-0.4-19.8C621.3,42.9,616.5,41.9,609.5,41.9z M587.5,89.9
			c0,12.8-8.7,20.4-22.9,20.4c-12.8,0-21-7.8-21-22.7c0-15.3,8.2-24.9,23.7-24.9c9.1,0,15.5,2.9,20.2,6.6V89.9z"/>
		<path class="st0" d="M718.2,41.9c-6.8,0-13,2.5-17.1,7.6c-6.6-4.5-15.9-8.4-28.2-8.4c-28,0-45.8,18.6-45.8,46.6
			s15.5,44.3,41.2,44.3c13,0,21.9-3.7,28-9.3v6.6c0,16.3-8.7,21.7-26.4,21.7c-13,0-25.4-4.1-30.9-6.6l-1,22.7c7.2,3.7,19.4,6,34.2,6
			c31.3,0,49.9-12.8,49.9-47.6V64.4c2.7-0.8,7.6-1.2,10.7-1.2l-0.4-19.8C730,42.9,725.2,41.9,718.2,41.9z M696.2,89.9
			c0,12.8-8.7,20.4-22.9,20.4c-12.8,0-21-7.8-21-22.7c0-15.3,8.2-24.9,23.7-24.9c9.1,0,15.5,2.9,20.2,6.6V89.9z"/>
		<path class="st0" d="M808.8,85.8c0,15.7-8.3,25.2-22.1,25.2c-10.5,0-15.7-5.2-15.7-20.2V62.1c0-16.9-8.5-20.2-21.2-20.2
			c-7,0-12.2,1-14.6,1.6l-0.4,19.8c3.1,0,7.8,0.4,10.5,1.2v30.3c0,30.7,12.4,39,32.8,39c13.2,0,23.3-4.1,30.7-12.2v6.2
			c0,17.1-8.3,23.3-25.4,23.3c-15.5,0-26.8-4.3-31.8-6.4l-1,22.5c7.2,3.5,19,6,33.6,6c32.2,0,50.5-13,50.5-48.5V43.1h-25.8
			L808.8,85.8L808.8,85.8z"/>
		<path class="st0" d="M939.6,115.9V43.1h-21.6l-1.4,4.9c-6-3.7-14.4-6.8-25.6-6.8c-27.4,0-46.4,18.6-46.4,49.7s16.7,47.7,41.3,47.7
			c14.8,0,24.7-5.4,30.9-13.2c3.5,8.1,10.1,12.6,21,12.6c6.4,0,10.5-0.8,13-1.4l0.4-19.6C945.9,117,942.8,116.7,939.6,115.9z
			 M913.8,96.5c0,13-8.9,20.6-22.1,20.6c-13,0-21.7-8.1-21.7-26.2c0-18.3,8.9-28.1,23.7-28.1c9.3,0,15.7,3.5,20.2,7.4V96.5z"/>
	</g>
	<g>
		
			<linearGradient id="SVGID_1_" gradientUnits="userSpaceOnUse" x1="103.21" y1="1.0773" x2="103.21" y2="177.1211" gradientTransform="matrix(1 0 0 -1 0 206.6667)">
			<stop  offset="0" style="stop-color:#27C2FF"/>
			<stop  offset="1" style="stop-color:#C4C1F8"/>
		</linearGradient>
		<path class="st1" d="M103.2,1.3C47.2,1.3,1.6,46.9,1.6,103c0,32.8,15.6,62,39.8,80.6c17.1,13.2,38.6,21,61.8,21
			c56,0,101.6-45.6,101.6-101.6S159.3,1.3,103.2,1.3z M103.2,16l58.1,33.8l-15.1,8.8l-7.2,4.2l-35.8,20.8l-43-25.1l-15.1-8.8
			L103.2,16z M103.2,164.8c-9.8,0-19.1-2.3-27.4-6.4l-34.4,25.2v-80.6c0-15.5,5.7-29.7,15.3-40.6l5.8,3.4l36.2,21.1l4.6,2.7l4.6-2.7
			L144,65.7l5.7-3.4c9.5,10.9,15.3,25.1,15.3,40.6C165,137.1,137.3,164.8,103.2,164.8z"/>
	</g>
	
		<linearGradient id="SVGID_2_" gradientUnits="userSpaceOnUse" x1="970.545" y1="71.5488" x2="980.0404" y2="88.2335" gradientTransform="matrix(1 0 0 -1 0 206.6667)">
		<stop  offset="0" style="stop-color:#27C2FF"/>
		<stop  offset="1" style="stop-color:#C4C1F8"/>
	</linearGradient>
	<circle class="st2" cx="975.2" cy="126.9" r="10.7"/>
</g>
</svg>
