<?xml version="1.0" encoding="utf-8"?>
<!-- Generator: Adobe Illustrator 21.0.0, SVG Export Plug-In . SVG Version: 6.00 Build 0)  -->
<svg version="1.1" id="Layer_1" xmlns="http://www.w3.org/2000/svg" xmlns:xlink="http://www.w3.org/1999/xlink" x="0px" y="0px"
	 viewBox="0 0 243 276.1" style="enable-background:new 0 0 243 276.1;" xml:space="preserve">
<style type="text/css">
	.st0{clip-path:url(#SVGID_2_);fill:#D3B358;}
	.st1{clip-path:url(#SVGID_2_);fill:#075936;}
</style>
<g>
	<defs>
		<rect id="SVGID_1_" width="800" height="800"/>
	</defs>
	<clipPath id="SVGID_2_">
		<use xlink:href="#SVGID_1_"  style="overflow:visible;"/>
	</clipPath>
	<path class="st0" d="M172.8,116.7c-4.2-0.8-7.1-1.3-7.1-1.3l7.1,3l9.9,4.2l1.9,0.3c-3.1,0.2-6.5,0.8-10.4,2.2
		c-0.4,0.1-0.9,0.3-1.3,0.5c-0.5,0.2-1,0.4-1.6,0.6c-2.1,0.9-4.4,2.1-6.9,3.4c-6.4,3.5-13.7,8.2-20.2,12.6
		c-6.7,4.5-12.6,8.7-15.9,11.2l-0.7-9.1l-1.3-18.1l-0.1-1.9c0.5-0.2,1.2-0.4,2-0.6c1.7-0.5,4-1.2,6.7-2c2.8-0.8,6-1.7,9.3-2.6
		c7.6-2,15.7-3.8,20.2-3.8c0.5,0,0.9,0,1.3,0.1c0,0-0.4-0.2-1.3-0.5c-2-0.6-6.5-1.4-14.5-0.2c-1.9,0.3-3.8,0.7-5.8,1.1
		c-3.3,0.8-6.5,1.8-9.3,2.7c-4.2,1.4-7.5,2.7-8.9,3.3l-0.7,0l-0.7,0c-1.5-0.6-5.3-2.1-10-3.7c-2.9-0.9-6.1-1.9-9.3-2.6
		c-1.5-0.3-3.1-0.6-4.6-0.9c-10.2-1.6-14.7,0.2-15.6,0.6c-0.1,0.1-0.2,0.1-0.2,0.1c0.1,0,0.1,0,0.2,0c0.4,0,0.9-0.1,1.5-0.1
		c4.3,0,11.6,1.6,18.7,3.5c3.2,0.8,6.5,1.7,9.3,2.6c4.6,1.3,8.2,2.5,9.8,3l-0.1,1.9l-1.3,18.1l-0.7,9.1c-3.5-2.7-9.9-7.4-17.1-12.3
		c-6.6-4.6-13.9-9.3-20.2-12.7c-1.5-0.8-2.9-1.5-4.3-2.2c-1.3-0.6-2.5-1.1-3.6-1.5c-0.3-0.1-0.6-0.2-0.8-0.3c-3-1-5.8-1.6-8.3-1.9
		l9.1-3.9l7.6-3.2c0,0-3.2,0.5-7.6,1.4c-9.1,1.8-23.4,5.1-25.2,8.5l33,15.7l19.5,9.3l20.7,9.9l20.7-9.9l18.4-8.7l34.1-16.2
		C196.7,121.9,181.9,118.5,172.8,116.7"/>
	<path class="st1" d="M125,40.6c0,0,44.9,6.2,54.9,18.2c0,0,1.8-19.6-19.1-31.7C135.4,12.4,125,0.7,125,0.7s-10.4,11.7-35.8,26.4
		C68.3,39.3,70.1,58.9,70.1,58.9C79.8,47.3,125,40.6,125,40.6"/>
	<path class="st1" d="M168.1,107.9c1,0.2,2.7,0.5,4.7,0.8V65.5c0-9.5-47.8-17.2-47.8-17.2S77.3,56,77.3,65.5v43.3
		c2.3-0.4,4.1-0.8,5.2-0.9c0.7-0.3,1.6-0.5,2.6-0.8V76.4c0,0,0,0,0,0c0,0,0,0,0,0c0,0-0.3-4.2,3.5-6.8c4.7-3.2,6.6-5.7,6.6-5.7
		s1.9,2.5,6.6,5.7c3.9,2.6,3.5,6.8,3.5,6.8c0,0,0,0,0,0c0,0,0,0,0,0v31.2c3.2,0.6,6.4,1.5,9.3,2.4V70.5c0,0,0,0,0,0c0,0,0,0,0,0
		c0,0-0.3-4.2,3.5-6.8c4.7-3.2,6.6-5.7,6.6-5.7s1.9,2.5,6.6,5.7c3.9,2.6,3.5,6.8,3.5,6.8c0,0,0,0,0,0c0,0,0,0,0,0v39.9
		c2.9-0.9,6.1-1.8,9.3-2.5V76.4c0,0,0,0,0,0c0,0,0,0,0,0c0,0-0.3-4.2,3.5-6.8c4.7-3.2,6.6-5.7,6.6-5.7s1.9,2.5,6.6,5.7
		c3.9,2.6,3.5,6.8,3.5,6.8c0,0,0,0,0,0c0,0,0,0,0,0v30.5C165.9,107.2,167.2,107.6,168.1,107.9"/>
	<path class="st1" d="M195.4,71.1c0,0,9.5,1.3,11.6,3.9c0,0,0.4-5.8-4-8.3c-5.4-3.1-7.6-5.6-7.6-5.6s-2.2,2.5-7.6,5.6
		c-4.4,2.6-4,8.3-4,8.3C185.9,72.5,195.4,71.1,195.4,71.1"/>
	<path class="st1" d="M185.3,81.1v30.4c8.6,2.1,14.7,4.3,18.3,7.5h1.9V81.1c0-2-10.1-3.6-10.1-3.6S185.3,79.1,185.3,81.1"/>
	<path class="st1" d="M55.1,71.1c0,0,9.6,1.4,11.6,3.9c0,0,0.4-5.8-4-8.3c-5.4-3.1-7.6-5.6-7.6-5.6s-2.2,2.5-7.6,5.6
		c-4.4,2.6-4,8.3-4,8.3C45.6,72.4,55.1,71.1,55.1,71.1"/>
	<path class="st1" d="M45,81.1V119h1.9c3.6-3.3,9.7-5.4,18.3-7.5V81.1c0-2-10.1-3.6-10.1-3.6S45,79.1,45,81.1"/>
	<path class="st1" d="M165.3,151.4l-40,16.8l-40-16.8l-56-23.5c1.2,8.7,7.3,15.9,15.6,18.6l80.4,26.3l80.4-26.3
		c8.3-2.7,14.4-9.9,15.6-18.6L165.3,151.4z"/>
	<path class="st1" d="M20,259.8l-0.8-0.9l-1,0.6c-1.4,0.8-3.1,1.2-5.2,1.2H9.4c-5.9,0-9-3.7-8.9-10.2l0.1-4.9c0-2.6,0.7-4.4,2.1-5.6
		c1.7-1.7,3.9-2.5,6.8-2.5h8.4v-1.2l4.4-1.1v16.1c0,3.9,2,6.1,5.6,6.1h1.3v4.5h-2.6C23.5,262.1,21.4,261.3,20,259.8 M9.1,256.2h4.1
		c3,0,4.6-1.6,4.7-4.9V242H9.4c-3.1,0-4.8,1.6-4.8,4.8v4.5C4.7,254.4,6.1,256.2,9.1,256.2"/>
	<path class="st1" d="M27.6,257.6h18.6v-7.1c0-4.7-3.8-8.6-8-8.6c-1.2,0-2.4,0.3-3.8,1l-1.9-4.3c2.1-1,3.9-1.4,5.5-1.4
		c2.6,0,4.7,0.6,6.6,1.8c3.6,2.4,6,6.5,6,10.9v7.8h6.3v4.5H27.6V257.6z M38.2,229h4.4v4.3h-4.4V229z"/>
	<path class="st1" d="M62.2,257.6v-14l4.2-2.2v16.1h6.2c2.2,0,4-1.8,4-4v-10l4.2-2.2v16.1h4.5c3.6,0,5.7-2,5.7-5.8v-8.2l4.2-2.2v9.9
		c0,7.2-3.3,10.7-9.7,10.7H55.4v-4.5H62.2z M73.3,232.7h4.4v4.3h-4.4V232.7z M76.5,227h4.4v4.3h-4.4V227z M79.5,232.7h4.4v4.3h-4.4
		V232.7z"/>
	<path class="st1" d="M113.6,266.3c-1.7-0.5-2.9-1.2-3.7-2c-1.7-1.8-2.6-4.4-2.6-10c0-6.5,3.3-9.8,9.8-9.8l-0.8,4.4
		c-3.1,0.6-4.7,2.5-4.7,5.9v1.3c0,1.9,0.4,3.5,1.4,4.6c1,1.3,2.5,2,4.4,2h11.3c3.8-0.1,5.7-2.1,5.7-5.7v-3.7c0-4.2,0.6-6.9,2.6-8.9
		c1.6-1.8,4-2.7,7.1-2.7c6.6,0,9.9,3.6,9.9,10.7v5.2h3.1v4.5h-7.4v-10.6c0-3-2.4-5.4-5.3-5.4h-0.2c-3,0-5.3,2.4-5.3,5.4
		c0,4,0,6.5-0.2,7.5c0,2.3-0.9,4.4-2.6,6.2c-1.4,1.2-3.4,1.8-6,1.8h-11.3C117.2,267.1,115.4,266.8,113.6,266.3 M118.3,271h4.4v4.3
		h-4.4V271z M124.6,271h4.4v4.3h-4.4V271z"/>
	<path class="st1" d="M164.8,261.4l-0.8-0.8l-1,0.6c-0.9,0.6-2.5,1-4.7,1h-2.7v-4.5h1.3c3.7,0,5.7-2,5.7-5.8v-0.9
		c0-6.4,3.1-10.2,9-10.2h3.7c6,0,8.9,3.2,8.9,9.7v13.5h-12.6C168.7,263.9,166.4,263.1,164.8,261.4 M166.9,254.6v0.3
		c0,3,1.9,4.5,4.5,4.5h8.6v-9c0-1.6-0.3-2.7-0.8-3.4c-1.1-1.5-2.8-1.7-3.6-1.7h-4c-3.1,0-4.7,1.5-4.8,4.6
		C166.8,252.3,166.9,253.9,166.9,254.6"/>
	<path class="st1" d="M199.6,268.1h0.7c1.5,0,2.6-0.3,3.4-0.8c1.6-1,2.1-2.5,2.3-3.7l0.3-1.6h-7.2c-5.8,0-8.7-3.2-8.7-9.7
		c0-2.5,0.2-4.6,0.4-6.1c0.4-2.8,2.8-5.6,5.2-6.2c1.4-0.3,3.4-0.4,6-0.4c5.7,0,8.5,3.2,8.5,9.6v8.3h4.6v4.5h-4.5l-0.1,1.3
		c-0.8,6.1-3.8,9.3-10.1,9.3h-1.9L199.6,268.1z M199,257.6h7V249c-0.2-3.2-1.8-4.8-4.7-4.8h-2.1c-3.2,0-4.8,1.7-4.8,4.6v3.8
		C194.5,255.9,196.2,257.6,199,257.6"/>
	<path class="st1" d="M213.4,257.6h7.8c-0.6-2.6-0.9-4.7-0.9-6.4c0-2.5,0.2-4.5,0.5-6c0.3-1.5,1-2.8,2-4c2-2.4,4.5-3.1,8.7-3.1
		c6.7,0,10.1,3.6,10.1,10.6v13.3h-28.1V257.6z M230.1,257.6h7v-8.8c0-3.7-1.9-5.8-5.8-5.8h-1.1c-3.7,0-5.7,1.9-5.7,5.8v2.8
		C224.6,255.4,226.7,257.6,230.1,257.6 M226.1,230h4.4v4.3h-4.4V230z M232.3,230h4.4v4.3h-4.4V230z"/>
	<path class="st1" d="M26.4,226.1c-0.7-0.1-1.2-0.2-1.7-0.5c-0.5-0.3-0.9-0.6-1.3-0.9l-3.1,0c-1.3,0-2.6,0-4,0c-1.4,0-2.7-0.1-4-0.4
		c-1.3-0.2-2.5-0.6-3.7-1.1c-1.2-0.5-2.1-1.3-2.9-2.3c-0.4-0.5-0.6-1-0.8-1.5c-0.2-0.5-0.2-1.1-0.2-1.6c0-1,0.2-2.1,0.6-3.1
		c0.4-1.1,0.9-2.1,1.6-3.1c0.7-1,1.4-2,2.1-3c0.8-1,1.5-1.9,2.3-2.7l0.8-0.9c1-1.2,2-2.4,3-3.5c1-1.2,2.1-2.3,3.2-3.4H3.8
		c-0.4,0-0.8-0.1-1.2-0.3c-0.4-0.2-0.7-0.5-1-0.8c-0.3-0.3-0.5-0.7-0.7-1c-0.2-0.3-0.3-0.6-0.3-0.7c0-0.3,0.2-0.4,0.6-0.4h21.1
		c0-0.3,0.2-0.5,0.6-0.5c0.4,0,0.9,0.2,1.5,0.5h18.5c0.4,0,0.8,0.1,1.2,0.3c0.4,0.2,0.7,0.5,1.1,0.8c0.3,0.3,0.6,0.7,0.8,1
		c0.2,0.3,0.3,0.6,0.3,0.7c0,0.3-0.2,0.5-0.6,0.5H27.8c1.5,0.8,3.1,1.7,4.8,2.8c1.7,1.1,3.2,2.3,4.5,3.6c1.4,1.3,2.5,2.7,3.4,4.1
		c0.9,1.4,1.3,2.8,1.3,4.2c0,1-0.2,1.9-0.6,2.8c-0.4,0.9-1,1.7-1.7,2.4c-0.7,0.7-1.5,1.3-2.3,1.7c-0.9,0.4-1.7,0.6-2.6,0.6
		c-0.8,0-1.6-0.2-2.4-0.6c-0.8-0.4-1.5-0.9-2.2-1.6c-0.6-0.7-1.2-1.4-1.6-2.3c-0.4-0.9-0.6-1.8-0.6-2.7c0-1.1,0.1-2.1,0.4-3
		c0.3-0.9,0.6-1.7,0.9-2.3c0.3-0.6,0.7-1.1,1-1.5c0.3-0.3,0.5-0.5,0.6-0.5c0.3,0,0.8,0.1,1.3,0.4c0.5,0.3,1,0.6,1.5,1
		c0.5,0.4,0.9,0.8,1.2,1.3c0.3,0.5,0.5,0.9,0.5,1.2c0,0.2,0,0.4-0.1,0.5c-0.9,1.6-1.5,3.1-1.9,4.5l1-0.7c0.8-0.6,1.3-1.2,1.7-2
		c0.4-0.8,0.6-1.6,0.6-2.5c0-1.2-0.3-2.2-1-2.9c-0.7-0.8-1.5-1.5-2.5-2.2c-1.8-1.5-3.7-2.5-5.9-2.9c-0.2,2.1-0.3,4.2-0.4,6.3
		c-0.1,2.1-0.1,4.2-0.1,6.3c0,3.2,0.1,6.4,0.3,9.6c0.2,0.3,0.3,0.6,0.3,0.8c-0.1,0.4-0.1,0.7-0.2,1C27,226,26.8,226.1,26.4,226.1
		 M18.2,220.2l3.5-0.1c-0.2-3.1-0.3-6.2-0.3-9.4c0-2.2,0-4.4,0.1-6.6c-3.4,3.5-6.4,7.3-9.2,11.5c-0.5,0.7-0.9,1.3-1.2,2.1
		c-0.4,0.7-0.6,1.4-0.8,2.2l0.5,0.1c1.3,0.1,2.5,0.1,3.7,0.2C15.7,220.2,16.9,220.2,18.2,220.2"/>
	<path class="st1" d="M56.7,226.1h-0.9c-1.4,0-2.7,0-4-0.1c-1.3-0.1-2.5-0.2-3.6-0.5c-1.1-0.3-2.1-0.7-3-1.2
		c-0.9-0.5-1.6-1.3-2.1-2.2c-0.2-0.3-0.3-0.6-0.3-0.8c0-0.3,0.2-0.6,0.5-0.7c0.3-0.1,0.5-0.2,0.6-0.2c0.5,0,1.2,0.3,1.9,0.8
		c1.2,0.2,2.3,0.3,3.5,0.4c1.2,0.1,2.3,0.1,3.5,0.1c1.2,0,2.5-0.1,3.9-0.2c1.4-0.2,2.8-0.5,4.1-0.9c1.3-0.4,2.4-1.1,3.4-1.8
		c1-0.8,1.6-1.8,2-3v-0.2c-0.5,0-1,0.1-1.5,0.2c-0.5,0.1-1,0.2-1.4,0.3l-0.3,0c-0.4,0-0.8-0.1-1.3-0.4c-0.5-0.2-1-0.6-1.5-0.9
		c-0.5-0.4-0.9-0.8-1.2-1.2s-0.5-0.8-0.5-1.2c0-0.2,0.3-0.7,0.9-1.5c0.6-0.8,1.2-1.6,1.9-2.7c0.7-1,1.3-2.1,1.9-3.3
		c0.6-1.2,0.9-2.3,0.9-3.3c0-0.9-0.1-1.5-0.3-1.8l-0.1-0.4c-0.8-0.4-1.9-0.6-3.1-0.6c-1.2,0-2.4,0.2-3.5,0.6c-1.2,0.4-2.2,1-3.1,1.8
		c-0.9,0.8-1.6,1.6-2.2,2.7c-0.6,1-0.8,2.1-0.8,3.4l0,0.7l0.4,1.3c0.5-0.4,0.9-1,1.3-1.9c0.4-0.9,0.8-2,1.3-3.5l0.7-2.2
		c0.2-0.4,0.4-0.5,0.8-0.5c0.4,0,0.8,0.1,1.4,0.4c0.5,0.3,1,0.6,1.5,1c0.5,0.4,0.8,0.8,1.2,1.2c0.3,0.4,0.5,0.8,0.5,1.1l0,0.3
		c-0.3,0.9-0.6,1.8-0.9,2.8c-0.3,1-0.7,2-1.1,2.9c-0.4,0.9-0.9,1.6-1.5,2.2c-0.6,0.6-1.3,0.9-2.1,0.9c-1.1,0-2.1-0.3-3.1-0.9
		c-1-0.6-2-1.4-2.8-2.4c-0.8-1-1.5-2.1-2-3.3c-0.5-1.2-0.8-2.4-0.8-3.5c0-1.5,0.3-2.8,1-4c0.7-1.2,1.5-2.2,2.6-3
		c1.1-0.8,2.2-1.4,3.5-1.9c1.3-0.4,2.6-0.7,3.9-0.7c1.4,0,2.8,0.3,4.3,0.8c1.5,0.5,2.9,1.3,4.1,2.2c1.3,0.9,2.3,2,3.1,3.3
		c0.8,1.3,1.2,2.7,1.2,4.1c0,1.3-0.3,2.6-0.9,3.8c-0.6,1.2-1.3,2.3-2.1,3.5c0.7,0.3,1.3,0.7,2,1.2c0.6,0.5,1.1,1,1.6,1.6
		c0.5,0.6,0.8,1.2,1.1,1.8c0.3,0.6,0.4,1.3,0.4,1.9c0,1.5-0.5,2.7-1.4,3.7c-1,1-2.2,1.8-3.6,2.4c-1.5,0.6-3,1-4.7,1.3
		C59.8,225.9,58.2,226.1,56.7,226.1"/>
	<path class="st1" d="M82.1,226.4c-1.2,0-2.3-0.3-3.3-0.9c-1.1-0.6-2-1.4-2.9-2.4c-0.8-1-1.5-2-2-3.2c-0.5-1.2-0.8-2.3-0.8-3.4
		c0-1.2,0.2-2.2,0.7-3.1s1-1.7,1.8-2.3c0.7-0.6,1.5-1.1,2.5-1.5c0.9-0.3,1.9-0.5,2.8-0.5c1.4,0,2.8,0.2,4.2,0.6c0-2-0.2-4-0.7-6
		c-0.5-2-1.2-3.9-2.1-5.6H72.2c-0.4,0-0.8-0.1-1.2-0.3c-0.4-0.2-0.7-0.5-1-0.8c-0.3-0.3-0.6-0.6-0.8-1c-0.2-0.3-0.3-0.6-0.3-0.8
		c0-0.3,0.2-0.4,0.6-0.4h32.3c0.4,0,0.7,0.1,1.1,0.3c0.4,0.2,0.7,0.5,1.1,0.8c0.3,0.3,0.6,0.6,0.8,1c0.2,0.3,0.3,0.6,0.3,0.8
		c0,0.3-0.2,0.4-0.6,0.4h-4.3c0.4,0.4,0.8,0.7,1.1,1.2c0.3,0.4,0.4,0.8,0.4,1.1v0.2c-1,3.9-1.5,7.8-1.5,11.7c0,1.5,0,3,0,4.6
		c0,1.6,0.1,3.3,0.3,5.1c0.4,1,0.6,2,0.7,3.1v0c0,0.4-0.2,0.5-0.6,0.5c-0.4,0-0.8-0.1-1.3-0.3c-0.5-0.2-1-0.5-1.4-0.8
		c-0.4-0.3-0.8-0.7-1.2-1.1c-0.3-0.4-0.6-0.9-0.7-1.3l0-3.3c-0.4-0.7-1-1.3-1.7-1.8c-0.7-0.5-1.5-0.9-2.4-1.3l-1.5-0.7l-0.3,2.4
		c-0.2,1-0.5,2-1,3.1c-0.4,1.1-1,2.1-1.7,2.9c-0.7,0.9-1.4,1.6-2.3,2.2C84.2,226.1,83.2,226.4,82.1,226.4 M78.9,221.9
		c0.8-0.2,1.6-0.6,2.3-1.2c0.7-0.6,1.3-1.3,1.8-2c0.5-0.8,0.9-1.6,1.2-2.5c0.3-0.9,0.5-1.8,0.7-2.6c-0.8,0-1.6,0.2-2.3,0.5
		c-0.7,0.3-1.4,0.7-2,1.2c-0.6,0.5-1,1.1-1.4,1.9c-0.4,0.8-0.6,1.6-0.6,2.6c0,0.6,0,1.1,0.1,1.6L78.9,221.9z M95.2,214.5
		c-0.1-1-0.2-1.9-0.3-2.9c0-1-0.1-1.9-0.1-2.9c0-3.7,0.4-7.3,1.2-10.7H85.9c0.2,0.2,0.4,0.5,0.6,0.8c2.3,3.7,3.5,8,3.8,12.8
		c0.8,0.4,1.7,0.8,2.5,1.3C93.6,213.5,94.4,214,95.2,214.5"/>
	<path class="st1" d="M119.8,196.8c-0.2-0.3-0.5-0.7-0.8-1c-0.3-0.3-0.6-0.6-0.9-0.8c-0.3-0.2-0.6-0.3-0.7-0.3h0
		c-0.5-0.5-1-0.9-1.7-1.3c-0.6-0.4-1.1-0.5-1.5-0.5c-0.3,0-0.5,0.1-0.7,0.3c-1.4,1.6-2.3,3.4-2.8,5.4c-0.5,2-0.7,4-0.7,6.1
		c0,0.8,0,1.5,0,2.2c0,0.7,0.1,1.5,0.1,2.2l0.1,1.2l-1.4-3.1c-0.4-0.8-0.8-1.6-1.2-2.4c-0.4-0.8-0.5-1.7-0.5-2.7v-0.2
		c0.1-1.1,0.4-2.1,0.9-2.9c0.5-0.9,1.1-1.7,1.8-2.4c0.7-0.8,1.5-1.5,2.2-2.2c0.8-0.7,1.5-1.4,2.2-2.2c0.7-0.8,1.2-1.6,1.7-2.5
		c0.4-0.9,0.7-2,0.7-3.1c0-1.6-0.4-3.1-1.1-4.6c-0.8-1.5-1.6-2.9-2.6-4.1c-1.2-1.5-2.5-2.8-4.1-4c-1.5-1.1-3.2-2.1-4.9-2.9
		c-1.7-0.8-3.6-1.4-5.5-1.8c-1.9-0.4-4-0.6-6-0.6c-0.4,0-0.9,0.1-1.7,0.3c-0.8,0.2-1.7,0.5-2.9,0.9c-1.1,0.4-2.1,0.9-3.1,1.6
		c-1,0.7-1.8,1.4-2.5,2.3c-0.7,0.9-1.3,1.8-1.7,2.8c-0.4,1-0.6,2.1-0.6,3.2l0,0.8c0.2,1.5,0.7,2.9,1.5,4.2c0.8,1.3,1.8,2.6,3.2,3.9
		c1.3,1.3,2.9,2.5,4.8,3.8c1.2,0.8,2.5,1.6,3.8,2.4c0.8,0.4,1.5,0.9,2.4,1.3l0.1,0.2c0.3,0.4,0.7,0.8,1.2,1.2
		c0.5,0.4,1.1,0.6,1.6,0.6h3.5v0.6c0,1.3,0.2,2.5,0.7,3.7c0.5,1.2,1,2.4,1.6,3.6c1.8,3.8,3.1,7.7,3.8,11.7c0.6,3,0.9,5.9,1.1,9
		l6.2,0c0-0.5,0.1-1.1,0.1-1.6c0.1-1,0.1-2,0.1-2.9c0-0.9,0-1.6,0-2.1c0-2-0.1-4-0.2-6.1c-0.2-2.1-0.2-4.1-0.2-6.2
		c0-1.8,0.2-3.5,0.5-5.1c0.4-1.6,1.1-3.2,2.1-4.7h1.8c0.4,0,0.6-0.2,0.6-0.5C120.1,197.4,120,197.1,119.8,196.8 M102.8,194.7h-5.2
		c-0.3-0.4-0.7-0.7-1.1-1c-0.4-0.3-0.8-0.6-1.1-0.7c-1.1-0.5-2.3-1.1-3.5-1.8c-1.2-0.7-2.3-1.5-3.3-2.4c-1-0.9-1.8-1.8-2.5-2.8
		c-0.6-1-1-2.1-1-3.1c0-2,0.8-4,2.5-5.8c0.7-0.7,1.3-1.4,1.8-1.9c0.6-0.5,1.1-0.9,1.8-1.2c0.6-0.3,1.3-0.6,2-0.7
		C94,173,94.9,173,96,173c1.7,0,3.4,0.2,5.2,0.5c1.8,0.4,3.4,1,4.9,1.8c1.5,0.8,2.7,1.8,3.7,3.1c1,1.3,1.4,2.8,1.4,4.6
		c0,1.3-0.3,2.4-1,3.4c-0.7,1-1.4,2-2.3,2.9c-0.9,0.9-1.8,1.8-2.8,2.7C104.2,192.9,103.4,193.8,102.8,194.7"/>
	<path class="st1" d="M185.8,173.9c-0.2-0.4-0.5-0.7-0.8-1c-0.3-0.3-0.6-0.6-1-0.8c-0.3-0.2-0.6-0.4-0.9-0.5
		c-5.6-2.8-11.6-4.3-17.8-4.3c-1.3,0-2.9,0.1-4.8,0.3c-1.9,0.2-4,0.5-6.2,0.9c-2.2,0.4-4.4,1-6.7,1.7c-2.2,0.7-4.3,1.6-6.1,2.7
		c-1.9,1-3.4,2.3-4.7,3.7c-1.3,1.4-2,3-2.2,4.8l0,0.9c0,1.3,0.3,2.6,0.8,3.8c0.5,1.2,1.3,2.4,2.4,3.5c0.7,0.8,1.8,1.6,3.2,2.6
		c1.4,1,3.1,2.1,5.1,3.3c0.7,0.4,1,1.1,1,2c0,0.8-0.2,1.6-0.6,2.6c-0.4,1-0.9,2-1.5,3.1c-0.6,1.1-1.2,2.2-1.8,3.3
		c-0.6,1.1-1.2,2.1-1.7,3.1l0-2.7c0-0.8,0-1.5-0.1-2.3c-0.1-0.8-0.2-1.5-0.2-2.3c-0.3-1.1-0.7-2.2-1.2-3.3c-0.5-1.1-1.2-2.2-1.9-3.2
		c-0.7-1-1.4-1.8-2.2-2.4c-0.8-0.6-1.5-1-2.2-1c-0.6,0.1-0.8,0.3-0.8,0.7c0,0.5,0.2,0.9,0.6,1.4l0,0H132c-0.4,0.1-0.6,0.2-0.6,0.4
		c0,0.2,0.1,0.5,0.3,0.8c0.2,0.3,0.4,0.6,0.7,1c0.3,0.3,0.6,0.6,1,0.8c0.4,0.2,0.8,0.3,1.2,0.3h0.7c0.6,1.7,0.9,3.7,0.9,6
		c0,2.5-0.1,4.9-0.3,7.3c-0.2,2.4-0.3,4.8-0.3,7c0,2.2,0.1,4.2,0.3,6.1c0.1,0.7,0.2,1.4,0.3,2.1l6.4,0c0.7-5.2,2.3-10.1,4.8-14.9
		c0.4-0.8,0.9-1.7,1.5-2.5c0.6-0.8,1.1-1.7,1.6-2.5c0.5-0.9,0.9-1.7,1.3-2.6c0.4-0.9,0.5-1.8,0.5-2.8c0-1.2-0.2-2.3-0.7-3.3h2.7
		c0.1,0,0.2,0,0.3-0.1h0c0.1-0.1,0.2-0.2,0.2-0.3c0-0.1,0-0.2-0.1-0.3c0-0.3-0.2-0.6-0.4-0.8c-0.3-0.4-0.6-0.7-0.9-0.9
		c-0.2-0.1-0.3-0.2-0.5-0.3c-0.1-0.1-0.1-0.1-0.2-0.1c-0.3-0.2-0.6-0.3-0.8-0.3c-0.1,0-0.2,0-0.4,0h-2.7c-1.1-0.9-2.2-1.7-3.4-2.5
		c-1.2-0.8-2.7-1.8-4.5-2.9c-0.5-0.4-0.8-0.9-1-1.6c-0.2-0.7-0.2-1.3-0.2-1.9c0-3.2,1.8-5.8,5.3-7.9c1.6-1,3.5-1.8,5.6-2.5
		c2.1-0.7,4.3-1.4,6.5-1.9c2.2-0.5,4.4-0.9,6.6-1.2c2.2-0.3,4.1-0.4,5.9-0.4c4.9,0,9.8,1.2,14.6,3.5c0.4,0.2,0.9,0.3,1.3,0.3
		c0.5,0,0.7-0.2,0.7-0.6C186.2,174.7,186.1,174.3,185.8,173.9"/>
	<path class="st1" d="M180.5,194.7c0.4,0,0.8,0.1,1.2,0.3c0.4,0.2,0.7,0.5,1,0.8c0.3,0.3,0.5,0.7,0.7,1c0.2,0.3,0.3,0.6,0.3,0.8
		c0,0.3-0.2,0.4-0.6,0.4h-3.9c0,0.6-0.1,1.2-0.1,1.8c0,0.6,0,1.3-0.1,1.9c0.1,0.3,0.2,0.6,0.2,0.8c0,0.3-0.1,0.5-0.3,0.6
		c-0.1,2.6-0.1,5.3-0.1,8c0,2,0,3.9,0.1,5.9c0.1,2,0.1,3.9,0.3,5.9c0.1,0.3,0.1,0.5,0.1,0.8c0,0.4-0.1,0.7-0.1,1.1
		c0,0.4-0.3,0.5-0.6,0.5c-0.6,0-1.1-0.1-1.6-0.4c-0.5-0.3-1-0.6-1.4-1c-0.4-0.4-0.8-0.8-1-1.3c-0.3-0.4-0.4-0.8-0.5-1.2
		c-0.3-4.3-0.4-8.5-0.4-12.9c0-2.4,0-4.7,0.1-7.1l-1.6-0.5c-0.6-0.3-1-0.4-1.2-0.4c-0.4,0-0.7,0.4-1.1,1c-0.4,0.6-0.7,1.4-1,2.3
		c-0.3,0.9-0.5,1.9-0.7,2.9c-0.2,1-0.3,2-0.3,2.8c0.6,1.3,0.8,2.6,0.8,4c0,1.6-0.3,2.5-0.9,2.5c-0.5,0-1-0.2-1.5-0.5
		c-0.5-0.3-1-0.7-1.4-1.1c-0.4-0.4-0.8-0.8-1-1.2c-0.3-0.4-0.4-0.6-0.4-0.7c-0.2-0.7-0.3-1.4-0.4-2.1l0,0.1
		c-0.4,0.5-0.8,0.9-1.3,1.3c-0.4,0.4-0.9,0.8-1.2,1.3l-0.9,1.2c-0.2,0.4-0.4,0.9-0.7,1.5c-0.3,0.6-0.6,1.1-1,1.7
		c-0.3,0.6-0.7,1-1.1,1.4c-0.4,0.4-0.7,0.6-0.9,0.6c-0.4,0-0.8-0.1-1.3-0.4c-0.5-0.3-1-0.6-1.4-1c-0.4-0.4-0.8-0.8-1.1-1.3
		c-0.3-0.4-0.5-0.8-0.5-1.2c0-0.1,0-0.3,0.1-0.4c0.9-1.7,1.9-3.4,3.1-4.9c0.9-1.7,1.6-3.5,2.1-5.4c0.6-1.9,0.8-3.8,0.8-5.7
		c-1.3-1-2.6-1.4-4.1-1.4h-2c-0.4,0-0.8-0.1-1.2-0.3c-0.4-0.2-0.7-0.5-1-0.8c-0.3-0.3-0.5-0.7-0.7-1c-0.2-0.3-0.3-0.6-0.3-0.8
		c0-0.2,0.2-0.4,0.6-0.4h2.7c0.6,0,1.4,0.1,2.5,0.3c1.2,0.2,2.4,0.6,3.7,1.2c1.3,0.5,2.4,1.3,3.4,2.2c1,1,1.6,2.2,1.8,3.6l0.1,1.3
		l0,0.8c0.1-0.7,0.3-1.5,0.5-2.3c0.2-0.9,0.5-1.8,0.9-2.6c0.4-0.8,0.8-1.5,1.3-2c0.5-0.5,1.1-0.8,1.7-0.8c1,0,3.2,0.7,6.6,2
		c0.2-2.8,0.4-5.5,0.6-8.3c0-0.3,0.2-0.5,0.6-0.5c0.3,0,0.8,0.1,1.3,0.4c0.5,0.2,1,0.6,1.5,0.9c0.5,0.4,0.9,0.8,1.2,1.2
		c0.3,0.4,0.5,0.9,0.5,1.3c0,0.2,0,0.4,0,0.6c0,0.2,0,0.4-0.1,0.6H180.5z"/>
	<path class="st1" d="M233.5,196.9c-0.2-0.3-0.4-0.6-0.7-1c-0.3-0.3-0.6-0.6-1-0.8c-0.4-0.2-0.8-0.3-1.2-0.3h-25l-0.5-0.1l-0.4,0.1
		h-26.7c-0.4,0.1-0.6,0.2-0.6,0.4c0,0.2,0.1,0.5,0.3,0.8c0.2,0.3,0.5,0.6,0.7,1c0.3,0.3,0.6,0.6,1,0.8c0.4,0.2,0.8,0.3,1.2,0.3h10.2
		v2.3c-1,0.1-2,0.2-3.1,0.5c-1.1,0.2-2.1,0.6-3,1.1c-0.9,0.5-1.7,1.1-2.3,1.8c-0.6,0.7-0.9,1.6-0.9,2.6c0,0.9,0.3,1.8,0.8,2.6
		c0.5,0.8,1.2,1.6,2,2.3c0.8,0.7,1.7,1.2,2.7,1.6c1,0.4,1.9,0.6,2.9,0.6c1.1,0,2-0.3,2.8-0.8c0.8-0.5,1.4-1.2,1.9-2.1
		c0.5-0.8,0.9-1.8,1.1-2.8c0.2-1,0.4-2,0.4-3h3.4c0.1,0.7,0.2,1.3,0.3,1.9c0,0.6,0.1,1.3,0.1,2c0,1.5-0.1,3-0.3,4.4l-0.3,0.1
		c-0.8,0.1-1.6,0.3-2.5,0.5c-0.9,0.2-1.6,0.6-2.4,1c-0.7,0.4-1.3,1-1.9,1.6c-0.5,0.7-0.8,1.5-0.9,2.5v0.1c0,0.9,0.2,1.7,0.7,2.5
		c0.5,0.8,1.1,1.5,1.8,2.1c0.7,0.6,1.5,1.1,2.4,1.4c0.9,0.4,1.7,0.5,2.5,0.5h0.2c0.9-0.1,1.7-0.3,2.3-0.8c0.6-0.5,1.1-1,1.6-1.7
		c0.4-0.7,0.8-1.4,1-2.2c0.2-0.8,0.4-1.6,0.5-2.4l0.1-0.9c0.2,0,0.3-0.1,0.5-0.1c0.2,0,0.4,0,0.6,0l2.2-0.1c0.5,0,1,0,1.5,0
		c0.5,0,1,0.1,1.5,0.1c0.1,1,0.1,1.9,0.2,2.8c0,0.9,0.1,1.9,0.2,2.8c0.1,0.5,0.3,1,0.6,1.4c0.3,0.5,0.7,0.9,1.2,1.3
		c0.4,0.4,0.9,0.7,1.4,0.9c0.5,0.2,1,0.3,1.4,0.3c0.4,0,0.6-0.2,0.6-0.5c0.1-0.4,0.1-0.7,0.1-1v-0.1c0-0.3-0.1-0.5-0.2-0.7
		c-0.1-2.1-0.2-4.2-0.3-6.3v-0.1c0-0.1,0-0.3,0-0.4c0,0,0,0,0,0l0-1.4v-2.3c0-2.3,0.1-4.7,0.1-7c0.6-0.2,1.2-0.3,1.9-0.5
		c0.6-0.2,1.2-0.4,1.8-0.6l0.2-0.1c0.5-0.2,0.9-0.4,1.4-0.5c0.5-0.1,1-0.2,1.5-0.3l0.6,0c0.5,0,0.8,0.2,1,0.5c0.2,0.4,0.3,1,0.3,1.8
		c0,0.3,0,0.5,0,0.7c0,0.2,0,0.4-0.1,0.6c0,0.2-0.1,0.4-0.1,0.5v0c-0.1,0.2-0.1,0.4-0.2,0.7c-0.1,0.3-0.2,0.6-0.4,1
		c-0.2,0.4-0.5,0.8-0.9,1.2c-0.4,0.5-0.9,0.9-1.6,1.4l-0.3,0.2c0-1.3,0.6-2.5,1.8-3.6c0.1-0.1,0.1-0.2,0.1-0.3c0-0.3-0.1-0.6-0.4-1
		c-0.3-0.4-0.6-0.7-1-1.1c-0.4-0.3-0.8-0.6-1.3-0.9c-0.4-0.2-0.8-0.4-1.2-0.4c-0.4,0-0.8,0.2-1.1,0.5c-0.3,0.3-0.6,0.8-0.8,1.2
		c-0.2,0.5-0.4,0.9-0.4,1.4c-0.1,0.5-0.2,0.9-0.2,1.1c0,0.8,0.2,1.6,0.5,2.4c0.3,0.8,0.8,1.6,1.3,2.3c0.6,0.7,1.2,1.3,2,1.7
		c0.8,0.5,1.6,0.7,2.5,0.7c0.8,0,1.6-0.2,2.3-0.7c0.7-0.5,1.4-1.1,1.9-1.9c0.5-0.8,1-1.6,1.3-2.5c0.3-0.9,0.5-1.8,0.5-2.7
		c0-1.2-0.3-2.3-0.8-3.4c-0.6-1.1-1.3-2-2.2-2.8c-0.9-0.8-1.9-1.4-3.1-1.9c-1.1-0.5-2.3-0.7-3.4-0.7c-0.8,0-1.6,0.1-2.4,0.4
		l-0.9,0.3l0.3-2.9c0-0.3-0.1-0.6-0.3-0.9h16.5c0.4,0,0.6-0.2,0.6-0.4C233.8,197.4,233.7,197.2,233.5,196.9 M187.2,208.7
		L187.2,208.7c0.2-0.7,0.7-1.3,1.3-1.8c0.6-0.5,1.3-0.9,2-1.2C189.8,207.2,188.7,208.2,187.2,208.7 M197,220.4L197,220.4
		c0.2-0.7,0.7-1.3,1.3-1.8c0.6-0.5,1.3-0.9,1.9-1.2C199.6,219,198.5,219.9,197,220.4 M211,210.2v3c-1-0.1-1.9-0.2-2.9-0.3
		c-1-0.1-2-0.1-3-0.2v-1c0-1.6-0.2-3-0.6-4.4c-0.4-1.4-1-2.6-1.8-3.6c-0.7-1-1.7-1.9-2.8-2.5c-1.1-0.6-2.4-1-3.8-1v-0.6
		c0-0.2,0-0.5,0.1-0.7v-0.1c0-0.2-0.1-0.4-0.2-0.7h7.9v0.3c0,1,0.2,2,0.5,2.9c0.3,1,0.8,1.8,1.4,2.6c0.6,0.8,1.4,1.5,2.3,2.1
		c0.9,0.6,1.9,1,3.1,1.2C211,208.2,211,209.2,211,210.2 M211.1,204l-0.7,0.1c-0.4,0-0.7-0.1-1.1-0.2c-0.4-0.1-0.6-0.3-0.7-0.6
		l-0.1-0.1c-0.2-0.3-0.3-0.8-0.5-1.4v-0.4c0-0.2,0-0.5,0.1-0.9c0.1-0.4,0.2-0.8,0.3-1.1c0.1-0.4,0.2-0.8,0.3-1.3h2.8L211.1,204z"/>
	<path class="st1" d="M241.2,196.9c-0.2-0.3-0.5-0.7-0.8-1c-0.3-0.3-0.7-0.6-1.1-0.8c-0.4-0.2-0.8-0.4-1.1-0.4l0-1.2
		c0-0.4-0.2-0.8-0.5-1.2c-0.4-0.4-0.8-0.9-1.3-1.2c-0.5-0.4-1-0.7-1.5-1c-0.5-0.3-0.9-0.4-1.2-0.4c-0.2,0-0.4,0.2-0.5,0.5
		s-0.2,0.8-0.2,1.3c-0.1,0.5-0.1,1-0.1,1.6c0,0.6,0,1-0.1,1.3v0.2h-3.8c-0.4,0-0.6,0.2-0.6,0.4c0,0.2,0.1,0.5,0.3,0.8
		c0.2,0.3,0.5,0.7,0.8,1c0.3,0.3,0.7,0.6,1.1,0.8c0.4,0.2,0.8,0.3,1.1,0.3h1c-0.1,2.3-0.2,4.5-0.3,6.7c-0.1,2.2-0.1,4.4-0.1,6.7
		c0,5.1,0.1,10.3,0.4,15.4l5.1,0c-0.1-1.9-0.2-3.7-0.2-5.5c0-2.3-0.1-4.6-0.1-6.9c0-2.8,0-5.5,0.1-8.2c0.1-2.7,0.2-5.5,0.4-8.2h2.9
		c0.4,0,0.6-0.2,0.6-0.4C241.5,197.4,241.4,197.2,241.2,196.9"/>
	<polyline class="st1" points="216.3,218.3 216.3,218.2 216.3,217.8 	"/>
	<line class="st1" x1="216.3" y1="215.5" x2="216.3" y2="216.4"/>
</g>
</svg>
